<svg width="10" height="10" viewBox="0 0 10 10" fill="none" xmlns="http://www.w3.org/2000/svg">
<path d="M0 1.3078C0 0.960948 0.131696 0.628304 0.366117 0.383045C0.600537 0.137785 0.918479 0 1.25 0L8.75 0C9.08152 0 9.39946 0.137785 9.63388 0.383045C9.8683 0.628304 10 0.960948 10 1.3078V6.53898C10 6.88583 9.8683 7.21848 9.63388 7.46374C9.39946 7.709 9.08152 7.84678 8.75 7.84678H2.75875C2.593 7.84682 2.43406 7.91574 2.31687 8.03837L0.53375 9.90395C0.490082 9.94975 0.434407 9.98097 0.373773 9.99365C0.313138 10.0063 0.25027 9.99992 0.193125 9.9752C0.135979 9.95049 0.0871262 9.9086 0.0527483 9.85482C0.0183704 9.80105 1.31343e-05 9.73781 0 9.67312L0 1.3078ZM2.1875 1.9617C2.10462 1.9617 2.02513 1.99614 1.96653 2.05746C1.90792 2.11877 1.875 2.20193 1.875 2.28864C1.875 2.37536 1.90792 2.45852 1.96653 2.51983C2.02513 2.58115 2.10462 2.61559 2.1875 2.61559H7.8125C7.89538 2.61559 7.97487 2.58115 8.03347 2.51983C8.09208 2.45852 8.125 2.37536 8.125 2.28864C8.125 2.20193 8.09208 2.11877 8.03347 2.05746C7.97487 1.99614 7.89538 1.9617 7.8125 1.9617H2.1875ZM2.1875 3.59644C2.10462 3.59644 2.02513 3.63089 1.96653 3.6922C1.90792 3.75352 1.875 3.83668 1.875 3.92339C1.875 4.0101 1.90792 4.09326 1.96653 4.15458C2.02513 4.21589 2.10462 4.25034 2.1875 4.25034H7.8125C7.89538 4.25034 7.97487 4.21589 8.03347 4.15458C8.09208 4.09326 8.125 4.0101 8.125 3.92339C8.125 3.83668 8.09208 3.75352 8.03347 3.6922C7.97487 3.63089 7.89538 3.59644 7.8125 3.59644H2.1875ZM2.1875 5.23119C2.10462 5.23119 2.02513 5.26563 1.96653 5.32695C1.90792 5.38826 1.875 5.47142 1.875 5.55814C1.875 5.64485 1.90792 5.72801 1.96653 5.78933C2.02513 5.85064 2.10462 5.88509 2.1875 5.88509H5.3125C5.39538 5.88509 5.47487 5.85064 5.53347 5.78933C5.59208 5.72801 5.625 5.64485 5.625 5.55814C5.625 5.47142 5.59208 5.38826 5.53347 5.32695C5.47487 5.26563 5.39538 5.23119 5.3125 5.23119H2.1875Z" fill="#F4F4F4"/>
</svg>
